<svg width="485" height="704" viewBox="0 0 485 704" fill="none" xmlns="http://www.w3.org/2000/svg">
<path d="M0 10C0 4.47716 4.47715 0 10 0H475C480.523 0 485 4.47715 485 10V694C485 699.523 480.523 704 475 704H0V10Z" fill="#C40000"/>
<path d="M0 10C0 4.47716 4.47715 0 10 0H475C480.523 0 485 4.47715 485 10V704H0V10Z" fill="#C40000"/>
<path d="M211.67 607.28L211.276 608.199L211.465 608.28H211.67V607.28ZM234 607.28H235V606.28H234V607.28ZM234 620.7V621.7H235V620.7H234ZM211.89 620.7V619.7H211.686L211.497 619.78L211.89 620.7ZM157 644.13H156V645.644L157.393 645.05L157 644.13ZM157 629.83L156.631 628.9L156 629.151V629.83H157ZM196.93 613.99L197.299 614.92L199.642 613.99L197.299 613.06L196.93 613.99ZM157 598.15H156V598.829L156.631 599.08L157 598.15ZM157 583.85L157.394 582.931L156 582.333V583.85H157ZM211.67 608.28H234V606.28H211.67V608.28ZM233 607.28V620.7H235V607.28H233ZM234 619.7H211.89V621.7H234V619.7ZM211.497 619.78L156.607 643.21L157.393 645.05L212.283 621.62L211.497 619.78ZM158 644.13V629.83H156V644.13H158ZM157.369 630.76L197.299 614.92L196.561 613.06L156.631 628.9L157.369 630.76ZM197.299 613.06L157.369 597.22L156.631 599.08L196.561 614.92L197.299 613.06ZM158 598.15V583.85H156V598.15H158ZM156.606 584.769L211.276 608.199L212.064 606.361L157.394 582.931L156.606 584.769ZM159.31 530.041L160.017 530.748L159.31 530.041ZM231.69 530.041L232.397 529.334L232.388 529.325L232.38 529.317L231.69 530.041ZM231.69 575.031L230.983 574.324L231.69 575.031ZM159.31 575.031L160.034 574.341L160.026 574.333L160.017 574.324L159.31 575.031ZM158 535.981C158 533.794 158.686 532.079 160.017 530.748L158.603 529.334C156.854 531.083 156 533.328 156 535.981H158ZM160.017 530.748C161.277 529.488 162.884 528.841 164.92 528.841V526.841C162.409 526.841 160.276 527.661 158.603 529.334L160.017 530.748ZM164.92 528.841H226.08V526.841H164.92V528.841ZM226.08 528.841C228.033 528.841 229.653 529.482 231 530.765L232.38 529.317C230.647 527.667 228.527 526.841 226.08 526.841V528.841ZM230.983 530.748C232.314 532.079 233 533.794 233 535.981H235C235 533.328 234.146 531.083 232.397 529.334L230.983 530.748ZM233 535.981V569.201H235V535.981H233ZM233 569.201C233 571.305 232.32 572.987 230.983 574.324L232.397 575.738C234.14 573.995 235 571.79 235 569.201H233ZM230.983 574.324C229.633 575.674 228.018 576.341 226.08 576.341V578.341C228.542 578.341 230.667 577.468 232.397 575.738L230.983 574.324ZM226.08 576.341H164.92V578.341H226.08V576.341ZM164.92 576.341C162.899 576.341 161.298 575.669 160.034 574.341L158.586 575.721C160.255 577.474 162.394 578.341 164.92 578.341V576.341ZM160.017 574.324C158.68 572.987 158 571.305 158 569.201H156C156 571.79 156.86 573.995 158.603 575.738L160.017 574.324ZM158 569.201V535.981H156V569.201H158ZM171.63 540.261C170.755 540.261 169.913 540.468 169.291 541.059C168.66 541.658 168.43 542.487 168.43 543.351H170.43C170.43 542.822 170.567 542.606 170.669 542.509C170.78 542.403 171.038 542.261 171.63 542.261V540.261ZM168.43 543.351V561.831H170.43V543.351H168.43ZM168.43 561.831C168.43 562.695 168.66 563.524 169.291 564.124C169.913 564.714 170.755 564.921 171.63 564.921V562.921C171.038 562.921 170.78 562.78 170.669 562.674C170.567 562.577 170.43 562.36 170.43 561.831H168.43ZM171.63 564.921H219.37V562.921H171.63V564.921ZM219.37 564.921C220.245 564.921 221.087 564.714 221.709 564.124C222.34 563.524 222.57 562.695 222.57 561.831H220.57C220.57 562.36 220.433 562.577 220.331 562.674C220.22 562.78 219.962 562.921 219.37 562.921V564.921ZM222.57 561.831V543.351H220.57V561.831H222.57ZM222.57 543.351C222.57 542.487 222.34 541.658 221.709 541.059C221.087 540.468 220.245 540.261 219.37 540.261V542.261C219.962 542.261 220.22 542.403 220.331 542.509C220.433 542.606 220.57 542.822 220.57 543.351H222.57ZM219.37 540.261H171.63V542.261H219.37V540.261ZM157 467.572V466.572H156V467.572H157ZM231.69 469.772L232.397 469.065L232.388 469.057L232.38 469.048L231.69 469.772ZM231.69 514.762L232.397 515.469L231.69 514.762ZM157 517.072H156V518.072H157V517.072ZM157 503.652V502.652H156V503.652H157ZM157 480.992H156V481.992H157V480.992ZM157 468.572H226.08V466.572H157V468.572ZM226.08 468.572C228.033 468.572 229.653 469.213 231 470.496L232.38 469.048C230.647 467.398 228.527 466.572 226.08 466.572V468.572ZM230.983 470.479C232.314 471.81 233 473.525 233 475.712H235C235 473.059 234.146 470.814 232.397 469.065L230.983 470.479ZM233 475.712V508.932H235V475.712H233ZM233 508.932C233 511.036 232.32 512.718 230.983 514.055L232.397 515.469C234.14 513.726 235 511.521 235 508.932H233ZM230.983 514.055C229.633 515.405 228.018 516.072 226.08 516.072V518.072C228.542 518.072 230.667 517.199 232.397 515.469L230.983 514.055ZM226.08 516.072H157V518.072H226.08V516.072ZM158 517.072V503.652H156V517.072H158ZM157 504.652H219.37V502.652H157V504.652ZM219.37 504.652C220.245 504.652 221.087 504.445 221.709 503.855C222.34 503.255 222.57 502.427 222.57 501.562H220.57C220.57 502.091 220.433 502.308 220.331 502.405C220.22 502.511 219.962 502.652 219.37 502.652V504.652ZM222.57 501.562V483.082H220.57V501.562H222.57ZM222.57 483.082C222.57 482.218 222.34 481.389 221.709 480.79C221.087 480.199 220.245 479.992 219.37 479.992V481.992C219.962 481.992 220.22 482.134 220.331 482.24C220.433 482.337 220.57 482.553 220.57 483.082H222.57ZM219.37 479.992H157V481.992H219.37V479.992ZM158 480.992V467.572H156V480.992H158ZM157 217.524V216.524H156V217.524H157ZM234 217.524H235V216.524H234V217.524ZM234 232.704L234.434 233.605L235 233.333V232.704H234ZM183.29 257.124L182.856 256.223L183.29 258.124V257.124ZM234 257.124H235V256.124H234V257.124ZM234 270.324V271.324H235V270.324H234ZM157 270.324H156V271.324H157V270.324ZM157 254.924L156.567 254.023L156 254.295V254.924H157ZM207.38 230.724L207.813 231.626L207.38 229.724V230.724ZM157 230.724H156V231.724H157V230.724ZM157 218.524H234V216.524H157V218.524ZM233 217.524V232.704H235V217.524H233ZM233.566 231.803L182.856 256.223L183.724 258.025L234.434 233.605L233.566 231.803ZM183.29 258.124H234V256.124H183.29V258.124ZM233 257.124V270.324H235V257.124H233ZM234 269.324H157V271.324H234V269.324ZM158 270.324V254.924H156V270.324H158ZM157.433 255.826L207.813 231.626L206.947 229.823L156.567 254.023L157.433 255.826ZM207.38 229.724H157V231.724H207.38V229.724ZM158 230.724V217.524H156V230.724H158ZM169.43 193.203H168.43V194.203H169.43V193.203ZM189.12 193.203V194.203H190.12V193.203H189.12ZM189.12 170.103V169.103H188.12V170.103H189.12ZM201.66 170.103H202.66V169.103H201.66V170.103ZM201.66 193.203H200.66V194.203H201.66V193.203ZM221.57 193.203V194.203H222.57V193.203H221.57ZM221.57 162.293V161.293H220.57V162.293H221.57ZM234 162.293H235V161.293H234V162.293ZM234 206.623V207.623H235V206.623H234ZM157 206.623H156V207.623H157V206.623ZM157 162.293V161.293H156V162.293H157ZM169.43 162.293H170.43V161.293H169.43V162.293ZM169.43 194.203H189.12V192.203H169.43V194.203ZM190.12 193.203V170.103H188.12V193.203H190.12ZM189.12 171.103H201.66V169.103H189.12V171.103ZM200.66 170.103V193.203H202.66V170.103H200.66ZM201.66 194.203H221.57V192.203H201.66V194.203ZM222.57 193.203V162.293H220.57V193.203H222.57ZM221.57 163.293H234V161.293H221.57V163.293ZM233 162.293V206.623H235V162.293H233ZM234 205.623H157V207.623H234V205.623ZM158 206.623V162.293H156V206.623H158ZM157 163.293H169.43V161.293H157V163.293ZM168.43 162.293V193.203H170.43V162.293H168.43ZM169.43 138.848H168.43V139.848H169.43V138.848ZM189.12 138.848V139.848H190.12V138.848H189.12ZM189.12 115.748V114.748H188.12V115.748H189.12ZM201.66 115.748H202.66V114.748H201.66V115.748ZM201.66 138.848H200.66V139.848H201.66V138.848ZM221.57 138.848V139.848H222.57V138.848H221.57ZM221.57 107.938V106.938H220.57V107.938H221.57ZM234 107.938H235V106.938H234V107.938ZM234 152.268V153.268H235V152.268H234ZM157 152.268H156V153.268H157V152.268ZM157 107.938V106.938H156V107.938H157ZM169.43 107.938H170.43V106.938H169.43V107.938ZM169.43 139.848H189.12V137.848H169.43V139.848ZM190.12 138.848V115.748H188.12V138.848H190.12ZM189.12 116.748H201.66V114.748H189.12V116.748ZM200.66 115.748V138.848H202.66V115.748H200.66ZM201.66 139.848H221.57V137.848H201.66V139.848ZM222.57 138.848V107.938H220.57V138.848H222.57ZM221.57 108.938H234V106.938H221.57V108.938ZM233 107.938V152.268H235V107.938H233ZM234 151.268H157V153.268H234V151.268ZM158 152.268V107.938H156V152.268H158ZM157 108.938H169.43V106.938H157V108.938ZM168.43 107.938V138.848H170.43V107.938H168.43ZM159.31 50.6121L160.017 51.3192L159.31 50.6121ZM231.69 50.6121L232.397 49.905L232.388 49.8964L232.38 49.8879L231.69 50.6121ZM234 97.9121V98.9121H235V97.9121H234ZM157 97.9121H156V98.9121H157V97.9121ZM169.43 84.4921H168.43V85.4921H169.43V84.4921ZM221.57 84.4921V85.4921H222.57V84.4921H221.57ZM158 56.5521C158 54.3651 158.686 52.65 160.017 51.3192L158.603 49.905C156.854 51.6542 156 53.8992 156 56.5521H158ZM160.017 51.3192C161.277 50.059 162.884 49.4121 164.92 49.4121V47.4121C162.409 47.4121 160.276 48.2319 158.603 49.905L160.017 51.3192ZM164.92 49.4121H226.08V47.4121H164.92V49.4121ZM226.08 49.4121C228.033 49.4121 229.653 50.0533 231 51.3362L232.38 49.8879C230.647 48.2375 228.527 47.4121 226.08 47.4121V49.4121ZM230.983 51.3192C232.314 52.65 233 54.3651 233 56.5521H235C235 53.8992 234.146 51.6542 232.397 49.905L230.983 51.3192ZM233 56.5521L233 97.9121H235L235 56.5521H233ZM234 96.9121H157V98.9121H234V96.9121ZM158 97.9121V56.5521H156V97.9121H158ZM171.63 60.8321C170.755 60.8321 169.913 61.039 169.291 61.6296C168.66 62.2293 168.43 63.0579 168.43 63.9221H170.43C170.43 63.3931 170.567 63.1766 170.669 63.0796C170.78 62.9735 171.038 62.8321 171.63 62.8321V60.8321ZM168.43 63.9221V84.4921H170.43V63.9221H168.43ZM169.43 85.4921H221.57V83.4921H169.43V85.4921ZM222.57 84.4921L222.57 63.9221H220.57L220.57 84.4921H222.57ZM222.57 63.9221C222.57 63.0579 222.34 62.2293 221.709 61.6296C221.087 61.039 220.245 60.8321 219.37 60.8321V62.8321C219.962 62.8321 220.22 62.9735 220.331 63.0796C220.433 63.1766 220.57 63.3931 220.57 63.9221H222.57ZM219.37 60.8321H171.63V62.8321H219.37V60.8321Z" fill="black"/>
</svg>
