<svg width="24" height="48" viewBox="0 0 24 48" fill="none" xmlns="http://www.w3.org/2000/svg">
<path d="M5.94 8.66H2.805L2.16 11H0.3L3.39 0.499999H5.355L8.445 11H6.585L5.94 8.66ZM5.475 6.965L4.38 2.93L3.27 6.965H5.475ZM15.1072 9.305V11H9.40723V0.499999H11.2372V9.305H15.1072ZM21.7869 9.305V11H16.0869V0.499999H17.9169V9.305H21.7869ZM0.795 19.5H2.625V30H0.795V19.5ZM11.3631 19.5V30H9.29309L5.96309 23.085V30H4.16309V19.5H6.26309L9.56309 26.37V19.5H11.3631ZM6.36 37.5C6.69 37.5 6.96 37.605 7.17 37.815C7.37 38.015 7.47 38.27 7.47 38.58V46.92C7.47 47.22 7.37 47.475 7.17 47.685C6.96 47.895 6.69 48 6.36 48H1.83C1.51 48 1.245 47.895 1.035 47.685C0.825 47.475 0.72 47.22 0.72 46.92V38.58C0.72 38.27 0.825 38.015 1.035 37.815C1.245 37.605 1.51 37.5 1.83 37.5H6.36ZM5.64 39.495C5.64 39.295 5.545 39.195 5.355 39.195H2.835C2.645 39.195 2.55 39.295 2.55 39.495V46.005C2.55 46.205 2.645 46.305 2.835 46.305H5.355C5.545 46.305 5.64 46.205 5.64 46.005V39.495ZM16.1385 37.5V48H14.0685L10.7385 41.085V48H8.93848V37.5H11.0385L14.3385 44.37V37.5H16.1385ZM19.455 39.195V41.88H22.605V43.59H19.455V46.305H23.67V48H17.625V37.5H23.67V39.195H19.455Z" fill="black"/>
</svg>
