<svg width="70" height="63" viewBox="0 0 70 63" fill="none" xmlns="http://www.w3.org/2000/svg">
<rect width="43" height="63" rx="5" fill="black"/>
<rect x="52" width="18" height="63" rx="5" fill="black"/>
<path d="M10.94 15.66H7.805L7.16 18H5.3L8.39 7.5H10.355L13.445 18H11.585L10.94 15.66ZM10.475 13.965L9.38 9.93L8.27 13.965H10.475ZM20.1072 16.305V18H14.4072V7.5H16.2372V16.305H20.1072ZM26.7869 16.305V18H21.0869V7.5H22.9169V16.305H26.7869ZM5.795 26.5H7.625V37H5.795V26.5ZM16.3631 26.5V37H14.2931L10.9631 30.085V37H9.16309V26.5H11.2631L14.5631 33.37V26.5H16.3631ZM11.36 44.5C11.69 44.5 11.96 44.605 12.17 44.815C12.37 45.015 12.47 45.27 12.47 45.58V53.92C12.47 54.22 12.37 54.475 12.17 54.685C11.96 54.895 11.69 55 11.36 55H6.83C6.51 55 6.245 54.895 6.035 54.685C5.825 54.475 5.72 54.22 5.72 53.92V45.58C5.72 45.27 5.825 45.015 6.035 44.815C6.245 44.605 6.51 44.5 6.83 44.5H11.36ZM10.64 46.495C10.64 46.295 10.545 46.195 10.355 46.195H7.835C7.645 46.195 7.55 46.295 7.55 46.495V53.005C7.55 53.205 7.645 53.305 7.835 53.305H10.355C10.545 53.305 10.64 53.205 10.64 53.005V46.495ZM21.1385 44.5V55H19.0685L15.7385 48.085V55H13.9385V44.5H16.0385L19.3385 51.37V44.5H21.1385ZM24.455 46.195V48.88H27.605V50.59H24.455V53.305H28.67V55H22.625V44.5H28.67V46.195H24.455Z" fill="white"/>
</svg>
